<svg width="2rem" viewBox="0 0 101 89" xmlns="http://www.w3.org/2000/svg"><path fill-rule="evenodd" clip-rule="evenodd" d="M56.5622 3.50001C53.8679 -1.16665 47.1321 -1.16664 44.4378 3.50002L1.56955 77.75C-1.12475 82.4167 2.24311 88.25 7.63171 88.25H93.3682C98.7568 88.25 102.125 82.4167 99.4304 77.75L56.5622 3.50001ZM55.7073 26.0979C53.403 22.0719 47.597 22.0719 45.2926 26.0979L22.7781 65.4336C19.4845 71.188 26.581 77.2452 31.7467 73.0889L46.7387 61.0263C48.9349 59.2593 52.065 59.2593 54.2612 61.0263L69.2532 73.0888C74.419 77.2452 81.5155 71.188 78.2218 65.4336L55.7073 26.0979Z" fill="#000000"></path></svg>